<svg width="500" height="500" viewBox="0 0 500 500" fill="none" xmlns="http://www.w3.org/2000/svg">
<path d="M312.961 373.121C299.513 377.95 285.78 380.958 271.434 382.185C245.67 384.389 221.378 379.419 198.608 368.017C162.987 350.179 139.195 321.84 126.854 283.824C120.933 265.584 119.476 246.78 121.391 228.103C122.787 214.491 127.652 201.235 131.201 187.232C132.652 184.689 134.073 182.83 135.061 180.763C144.333 161.37 157.631 145.196 174.494 132.011C181.407 126.607 188.888 121.929 196.111 116.921C203.834 113.916 211.464 110.638 219.301 107.971C230.681 104.099 242.431 102.459 254.497 101.842C272.875 100.903 290.722 103.306 307.96 109.186C322.065 113.997 335.055 121.282 346.974 130.418C366.031 145.025 380.321 163.368 389.982 185.234C396.152 199.198 399.591 213.854 401.192 229.17C403.557 251.791 399.622 273.238 391.989 294.288C390.882 297.341 389.37 300.248 387.805 303.791C386.717 305.572 385.722 306.708 385.045 308.01C375.539 326.293 362.582 341.789 345.812 353.619C335.439 360.938 323.949 366.674 312.961 373.121ZM263.778 238.941C264.773 238.994 265.819 238.864 266.756 239.125C307.232 250.416 335.88 274.393 348.506 315.496C349.198 317.749 349.689 320.062 350.421 322.921C367.585 303.687 377.393 281.907 380.641 257.158C380.817 255.821 379.934 253.898 378.906 252.913C356.604 231.558 330.03 222.179 299.444 226.689C286.339 228.622 273.607 233.09 259.485 236.719C261.688 237.991 262.353 238.374 263 239.676C262.439 240.691 261.335 241.738 261.394 242.715C263.899 283.953 253.398 321.407 229.021 354.875C228.462 355.642 228.076 356.536 227.508 357.552C242.302 362.153 257.135 362.989 272.176 362.002C289.25 360.882 290.749 359.126 292.064 342.058C294.877 305.519 284.816 272.694 264.319 242.71C263.546 241.579 263.416 240.01 263.778 238.941ZM283.638 155.144C262.748 178.247 257.841 205.894 260.523 236.708C285.142 199.348 321.014 183.501 363.089 178.917C363.02 178.402 363.077 178.015 362.918 177.763C350.933 158.68 334.759 144.206 314.59 134.246C313.338 133.628 310.888 134.017 309.709 134.895C301.077 141.333 292.626 148.015 283.638 155.144ZM172.88 315.357C207.293 303.197 249.193 266.411 258.602 239.746C222.035 259.096 184.015 269.116 142.423 261.008C145.488 280.645 152.979 297.639 163.98 313.26C166.331 316.598 168.626 317.63 172.88 315.357ZM167.89 194.605C188.948 217.222 242.413 242.188 256.433 236.119C221.414 210.742 203.87 177.438 210.254 133.031C192.767 141.199 178.076 152.533 166.748 167.687C154.809 183.66 154.981 178.558 167.89 194.605Z" fill="#DD2F45"/>
<path d="M104.975 185.908C98.3605 184.939 91.7446 183.982 85.1327 182.998C71.6285 180.987 57.814 180.526 45.7925 172.492C33.1338 164.032 26.4667 152.324 23.8477 137.548C22.0497 127.403 23.1213 117.899 27.7419 108.899C31.7108 101.169 38.9526 97.8211 47.0951 96.0031C59.7926 93.1681 72.3629 89.5526 85.1891 87.5845C92.7531 86.4238 95.0936 83.3768 96.2884 76.0815C98.4943 62.6138 102.496 49.4505 105.372 36.0792C108.098 23.4035 116.878 17.2432 128.494 15.1879C146.99 11.9153 163.161 17.2367 176.345 30.8584C184.801 39.5947 188.252 50.5906 189.941 62.2324C191.187 70.8228 191.976 79.4795 192.554 88.6293C186.828 91.4969 181.372 93.5643 176.23 96.237C158.435 105.488 143.38 118.171 130.833 133.761C118.396 149.215 108.648 166.074 104.975 185.908Z" fill="#DD2E44"/>
<path d="M415.031 307.163C429.201 309.12 443.778 308.942 457.054 315.509C471.71 322.758 480.847 334.335 483.941 350.332C486.258 362.311 486.338 374.173 479.035 384.91C475.724 389.778 471.08 392.638 465.497 393.941C449.946 397.571 434.403 401.253 418.766 404.479C414.919 405.273 413.727 407.286 413.013 410.499C410.368 422.409 407.688 434.31 404.982 446.206C404.046 450.319 403.098 454.436 401.975 458.501C398.997 469.275 390.426 473.691 380.693 475.814C370.252 478.091 359.958 476.668 349.93 472.547C333.787 465.914 324.173 453.725 320.188 437.281C317.889 427.798 317.324 417.894 316.006 408.177C315.632 405.42 315.352 402.651 315.473 399.405C321.514 397.327 327.276 396.157 332.68 394.062C358.35 384.112 379.113 367.576 395.453 345.598C404.107 333.958 411.652 321.575 415.031 307.163Z" fill="#DD2E44"/>
<path d="M414.612 307.092C411.652 321.575 404.107 333.958 395.453 345.598C379.113 367.576 358.35 384.112 332.679 394.062C327.276 396.157 321.514 397.327 315.534 398.97C314.426 390.692 313.701 382.367 312.969 373.581C323.949 366.674 335.439 360.938 345.812 353.619C362.582 341.789 375.539 326.293 385.045 308.01C385.722 306.708 386.717 305.572 387.846 304.157C396.816 304.978 405.504 305.999 414.612 307.092Z" fill="#BE1931"/>
<path d="M105.424 185.956C108.648 166.074 118.396 149.215 130.833 133.761C143.38 118.171 158.435 105.488 176.23 96.237C181.372 93.5643 186.828 91.4969 192.488 89.0626C193.562 92.6005 194.548 96.1992 194.95 99.8619C195.538 105.226 195.707 110.635 196.083 116.474C188.888 121.93 181.407 126.607 174.494 132.011C157.631 145.196 144.333 161.37 135.061 180.763C134.073 182.83 132.652 184.689 131.147 186.845C122.533 186.699 114.203 186.351 105.424 185.956Z" fill="#BE1931"/>
<path d="M263.017 238.758C262.352 238.374 261.688 237.991 259.485 236.719C273.607 233.09 286.339 228.622 299.444 226.689C330.03 222.179 356.603 231.558 378.906 252.913C379.934 253.898 380.817 255.821 380.641 257.158C377.393 281.907 367.585 303.687 350.421 322.921C349.689 320.062 349.198 317.749 348.506 315.496C335.88 274.393 307.232 250.416 266.756 239.125C265.819 238.864 264.773 238.994 263.381 238.823C262.984 238.706 263.017 238.758 263.017 238.758Z" fill="#F5F6F8"/>
<path d="M283.878 154.882C292.626 148.015 301.077 141.333 309.709 134.895C310.888 134.017 313.338 133.628 314.59 134.246C334.759 144.206 350.933 158.68 362.918 177.763C363.077 178.015 363.02 178.402 363.089 178.917C321.014 183.501 285.142 199.348 260.523 236.708C257.841 205.894 262.748 178.247 283.878 154.882Z" fill="#F5F6F8"/>
<path d="M262.986 238.675C263.416 240.01 263.546 241.579 264.319 242.71C284.816 272.694 294.877 305.519 292.064 342.058C290.749 359.126 289.25 360.882 272.175 362.002C257.135 362.989 242.301 362.153 227.508 357.552C228.076 356.536 228.462 355.642 229.021 354.875C253.398 321.407 263.899 283.953 261.394 242.715C261.335 241.738 262.438 240.691 263.008 239.217C263.017 238.758 262.984 238.706 262.986 238.675Z" fill="#F5F6F8"/>
<path d="M172.529 315.52C168.626 317.63 166.331 316.598 163.98 313.26C152.979 297.639 145.488 280.645 142.423 261.008C184.014 269.116 222.035 259.096 258.602 239.746C249.192 266.411 207.293 303.197 172.529 315.52Z" fill="#F5F6F8"/>
<path d="M167.647 194.347C154.981 178.558 154.809 183.66 166.748 167.687C178.076 152.533 192.767 141.199 210.254 133.031C203.87 177.438 221.414 210.742 256.433 236.119C242.413 242.188 188.948 217.222 167.647 194.347Z" fill="#F5F6F8"/>
</svg>
