<svg width="500" height="500" viewBox="0 0 500 500" fill="none" xmlns="http://www.w3.org/2000/svg">
<circle cx="261" cy="244" r="142" fill="#D82907"/>
<path d="M105.952 187.657C99.3379 186.688 92.722 185.731 86.1101 184.747C72.6059 182.736 58.7914 182.275 46.7699 174.241C34.1112 165.781 27.4441 154.073 24.8251 139.297C23.0271 129.152 24.0987 119.648 28.7193 110.648C32.6882 102.918 39.93 99.5699 48.0725 97.7519C60.77 94.9169 73.3403 91.3014 86.1665 89.3333C93.7305 88.1726 96.071 85.1256 97.2658 77.8303C99.4717 64.3626 103.473 51.1993 106.349 37.828C109.075 25.1523 117.855 18.992 129.471 16.9367C147.967 13.6641 164.138 18.9855 177.322 32.6072C185.778 41.3435 189.229 52.3394 190.918 63.9812C192.164 72.5716 192.953 81.2283 193.531 90.3781C187.805 93.2457 182.349 95.3131 177.207 97.9858C159.412 107.237 144.357 119.92 131.81 135.51C119.373 150.964 109.625 167.823 105.952 187.657Z" fill="#D82907"/>
<path d="M414.5 307.001C428.67 308.958 443.778 308.942 457.054 315.509C471.71 322.758 480.847 334.335 483.941 350.332C486.258 362.311 486.338 374.173 479.035 384.91C475.724 389.778 471.08 392.638 465.497 393.941C449.946 397.571 434.403 401.253 418.766 404.479C414.919 405.273 413.727 407.286 413.013 410.499C410.368 422.409 407.688 434.31 404.982 446.206C404.046 450.319 403.098 454.436 401.975 458.501C398.997 469.275 390.426 473.691 380.693 475.814C370.252 478.091 359.958 476.668 349.93 472.547C333.787 465.914 324.173 453.725 320.188 437.281C317.889 427.798 317.324 417.894 316.006 408.177C315.632 405.42 315.379 402.247 315.5 399.001C321.541 396.923 327.276 396.157 332.68 394.062C358.35 384.112 379.113 367.576 395.453 345.598C404.107 333.958 411.121 321.413 414.5 307.001Z" fill="#D82907"/>
<path d="M414.612 307.092C411.652 321.575 404.107 333.958 395.453 345.598C379.113 367.576 358.35 384.112 332.679 394.062C327.276 396.157 321.514 397.327 315.534 398.97C314.426 390.692 313.701 382.367 312.969 373.581C323.949 366.674 335.439 360.938 345.812 353.619C362.582 341.789 375.539 326.293 385.045 308.01C385.722 306.708 386.717 305.572 387.846 304.157C396.816 304.978 405.504 305.999 414.612 307.092Z" fill="#8C1700"/>
<path d="M105.5 188C108.807 167.464 118.307 151.132 131.065 135.169C143.936 119.066 159.38 105.966 177.634 96.4105C182.909 93.6498 188.506 91.5144 194.312 89C195.414 92.6543 196.425 96.3714 196.838 100.155C197.441 105.695 197.614 111.282 198 117.313C190.619 122.949 182.945 127.78 175.854 133.362C158.555 146.981 144.914 163.687 135.402 183.718C134.389 185.853 132.931 187.773 131.387 190C122.551 189.849 114.506 188.408 105.5 188Z" fill="#8C1700"/>
<path d="M332.114 220.667C324.241 206.047 308.836 196.944 292.084 197H165.332C164.476 197.004 163.639 197.259 162.928 197.736C162.216 198.212 161.659 198.887 161.328 199.678C161.001 200.463 160.916 201.329 161.084 202.163C161.251 202.997 161.663 203.763 162.267 204.361L189.879 231.809C192.317 234.24 195.638 235.601 199.094 235.601H288.449C294.818 235.534 300.024 240.586 300.091 246.877C300.158 253.167 295.053 258.321 288.684 258.383H227.08C226.224 258.383 225.386 258.636 224.672 259.11C223.958 259.584 223.399 260.259 223.066 261.049C222.736 261.835 222.649 262.703 222.815 263.539C222.981 264.376 223.394 265.143 223.999 265.743L251.628 293.213C254.081 295.643 257.393 297.004 260.843 297H288.706C324.957 297 352.367 258.685 332.114 220.65" fill="#FEFEFD"/>
</svg>
